<svg width="24" height="25" viewBox="0 0 24 25" fill="none" xmlns="http://www.w3.org/2000/svg">
<path d="M12 0.5C10.4241 0.5 8.86371 0.818095 7.4078 1.43612C5.95189 2.05415 4.62902 2.96001 3.51472 4.10198C1.26428 6.40829 0 9.53631 0 12.7979C0 18.2336 3.444 22.8453 8.208 24.481C8.808 24.5793 9 24.1981 9 23.8661V21.7877C5.676 22.5256 4.968 20.1398 4.968 20.1398C4.416 18.7132 3.636 18.332 3.636 18.332C2.544 17.5695 3.72 17.5941 3.72 17.5941C4.92 17.6802 5.556 18.8608 5.556 18.8608C6.6 20.7301 8.364 20.1767 9.048 19.8815C9.156 19.0822 9.468 18.5411 9.804 18.2336C7.14 17.9262 4.344 16.8685 4.344 12.183C4.344 10.818 4.8 9.72344 5.58 8.85029C5.46 8.54284 5.04 7.26386 5.7 5.60364C5.7 5.60364 6.708 5.27159 9 6.85803C9.948 6.58747 10.98 6.4522 12 6.4522C13.02 6.4522 14.052 6.58747 15 6.85803C17.292 5.27159 18.3 5.60364 18.3 5.60364C18.96 7.26386 18.54 8.54284 18.42 8.85029C19.2 9.72344 19.656 10.818 19.656 12.183C19.656 16.8808 16.848 17.9139 14.172 18.2213C14.604 18.6025 15 19.3527 15 20.4964V23.8661C15 24.1981 15.192 24.5916 15.804 24.481C20.568 22.833 24 18.2336 24 12.7979C24 11.1829 23.6896 9.58376 23.0866 8.09171C22.4835 6.59966 21.5996 5.24395 20.4853 4.10198C19.371 2.96001 18.0481 2.05415 16.5922 1.43612C15.1363 0.818095 13.5759 0.5 12 0.5Z" fill="black"/>
</svg>
