<svg width="24" height="25" viewBox="0 0 24 25" fill="none" xmlns="http://www.w3.org/2000/svg">
<path d="M5.03673 3.16785C5.03639 3.87506 4.77075 4.55316 4.29822 5.05298C3.8257 5.55279 3.18502 5.83339 2.5171 5.83304C1.84919 5.83268 1.20877 5.55141 0.736721 5.05109C0.264673 4.55077 -0.00033364 3.87239 3.15251e-07 3.16519C0.000334271 2.45798 0.265981 1.77988 0.738502 1.28006C1.21102 0.780243 1.85171 0.499647 2.51962 0.5C3.18753 0.500354 3.82796 0.781629 4.30001 1.28195C4.77205 1.78227 5.03706 2.46065 5.03673 3.16785ZM5.11228 7.80759H0.0755511V24.5H5.11228V7.80759ZM13.0703 7.80759H8.05876V24.5H13.0199V15.7405C13.0199 10.8608 19.0262 10.4075 19.0262 15.7405V24.5H24V13.9273C24 5.70104 15.1102 6.00769 13.0199 10.0475L13.0703 7.80759Z" fill="black"/>
</svg>
