<svg width="24" height="21" viewBox="0 0 24 21" fill="none" xmlns="http://www.w3.org/2000/svg">
<path d="M0.0816001 2.3525L10.7316 13.4475C11.0467 13.7759 11.4675 13.9709 11.9126 13.9947C12.3578 14.0185 12.7955 13.8694 13.1412 13.5763L13.278 13.4475L23.9208 2.36C23.9556 2.4975 23.9784 2.6375 23.9904 2.78125L24 3V18C24.0002 18.6307 23.7715 19.2382 23.3598 19.7007C22.9481 20.1632 22.3838 20.4464 21.78 20.4938L21.6 20.5H2.4C1.79451 20.5002 1.21132 20.262 0.767342 19.8331C0.323365 19.4043 0.051412 18.8164 0.00600014 18.1875L0 18V3C0 2.85 0.012 2.705 0.036 2.5625L0.0816001 2.3525ZM21.6 0.5C21.7452 0.5 21.888 0.5125 22.026 0.53875L22.23 0.5875L12.006 11.2375L1.7784 0.585C1.9104 0.5475 2.0472 0.5225 2.1864 0.51L2.4 0.5H21.6Z" fill="black"/>
</svg>
